<?xml version="1.0" standalone="no"?>
<!DOCTYPE svg PUBLIC "-//W3C//DTD SVG 20010904//EN"
 "http://www.w3.org/TR/2001/REC-SVG-20010904/DTD/svg10.dtd">
<svg version="1.0" xmlns="http://www.w3.org/2000/svg"
 width="800.000000pt" height="611.000000pt" viewBox="0 0 800.000000 611.000000"
 preserveAspectRatio="xMidYMid meet">

<g transform="translate(0.000000,611.000000) scale(0.100000,-0.100000)"
fill="#000000" stroke="none">
<path d="M3919 5972 c-16 -7 -303 -194 -777 -507 -248 -164 -585 -385 -867
-570 -99 -65 -306 -202 -460 -303 -154 -102 -415 -274 -580 -382 -165 -108
-394 -259 -510 -335 -115 -76 -289 -190 -385 -253 -96 -63 -183 -124 -192
-136 -22 -27 -23 -97 -2 -139 46 -90 123 -154 172 -142 13 3 174 104 356 224
326 215 586 385 801 526 61 40 245 161 410 269 165 109 379 250 475 313 96 63
334 219 527 346 194 128 445 293 558 367 475 313 550 360 562 356 12 -5 314
-201 623 -406 91 -60 242 -159 335 -220 397 -260 797 -522 1035 -679 287 -189
643 -424 830 -546 114 -75 222 -146 652 -428 198 -130 209 -135 252 -115 39
19 99 89 121 141 16 38 20 93 9 122 -7 17 -102 81 -989 663 -213 139 -565 372
-907 597 -125 83 -330 217 -455 300 -621 408 -1267 833 -1343 883 -82 55 -87
57 -160 59 -41 1 -82 -1 -91 -5z"/>
<path d="M3967 5439 c-28 -17 -9 -29 21 -13 24 12 27 12 30 -2 2 -9 -2 -20
-10 -25 -10 -7 -9 -9 4 -9 9 0 19 -6 22 -12 3 -7 4 -5 3 6 -1 11 5 20 16 21
11 2 14 -1 10 -8 -12 -18 -10 -57 2 -49 5 3 21 7 35 7 39 0 30 17 -30 57 -58
40 -74 44 -103 27z"/>
<path d="M3930 5412 c0 -5 -16 -17 -35 -28 -19 -10 -35 -22 -35 -26 0 -13 10
-9 32 12 12 11 28 20 35 20 7 0 13 7 13 15 0 8 -2 15 -5 15 -3 0 -5 -4 -5 -8z"/>
<path d="M3895 5350 c3 -5 10 -10 16 -10 5 0 9 5 9 10 0 6 -7 10 -16 10 -8 0
-12 -4 -9 -10z"/>
<path d="M3590 4585 l0 -315 -310 0 -310 0 0 -405 0 -405 310 0 310 0 0 -315
0 -315 40 0 39 0 4 58 3 57 2 -57 2 -58 44 0 c26 0 46 5 49 13 4 9 6 9 6 0 1
-7 10 -13 21 -13 17 0 20 8 23 68 l3 67 2 -67 2 -68 40 0 39 0 4 63 3 62 2
-62 2 -63 54 0 c30 0 57 4 60 9 3 5 19 11 36 13 36 5 27 -8 -10 -15 -14 -2 39
-4 118 -5 l143 -2 -5 23 -6 22 11 -22 c10 -18 21 -23 52 -23 38 0 40 1 21 15
-16 13 -16 14 -1 9 16 -6 17 13 17 300 l0 306 310 0 310 0 0 405 0 405 -310 0
-310 0 0 315 0 315 -410 0 -410 0 0 -315z m670 -150 l0 -315 310 0 310 0 0
-260 0 -260 -310 0 -310 0 0 -310 0 -309 -182 -3 c-101 -2 -218 -2 -260 0
l-78 3 0 309 0 310 -310 0 -310 0 -5 23 c-3 12 -4 130 -3 262 l3 240 313 -1
312 -2 0 314 0 314 260 0 260 0 0 -315z m-293 -1527 c-2 -13 -4 -3 -4 22 0 25
2 35 4 23 2 -13 2 -33 0 -45z m400 0 c-2 -13 -4 -5 -4 17 -1 22 1 32 4 23 2
-10 2 -28 0 -40z m-200 10 c-3 -7 -5 -2 -5 12 0 14 2 19 5 13 2 -7 2 -19 0
-25z m-540 0 c-3 -8 -6 -5 -6 6 -1 11 2 17 5 13 3 -3 4 -12 1 -19z"/>
<path d="M2005 3575 c-55 -19 -117 -88 -145 -160 -18 -46 -23 -80 -23 -145 0
-97 18 -155 63 -212 17 -20 27 -39 22 -41 -4 -3 -44 -14 -89 -26 -124 -32
-192 -60 -209 -87 -93 -141 -374 -1037 -374 -1191 0 -24 6 -46 15 -53 13 -11
22 -6 56 31 48 52 193 268 310 464 l84 140 6 -405 c6 -378 12 -514 39 -845 15
-175 38 -356 51 -394 10 -28 15 -31 55 -31 24 0 44 1 44 3 0 1 7 34 15 73 18
85 49 400 66 672 l12 192 72 0 71 0 13 -192 c22 -351 47 -590 72 -700 l11 -48
43 0 c24 0 46 4 49 9 9 14 35 188 46 306 30 327 43 591 49 955 l6 405 84 -140
c106 -177 236 -374 291 -442 29 -38 49 -53 66 -53 22 0 24 4 24 46 0 48 -49
262 -101 442 -73 253 -205 632 -220 632 -4 0 -7 6 -4 13 5 17 -47 120 -64 125
-8 3 -11 0 -7 -7 4 -6 2 -11 -4 -11 -6 0 -10 8 -8 18 3 17 -64 43 -223 87
l-57 15 33 35 c58 60 84 174 66 281 -15 84 -48 150 -100 196 -61 56 -130 70
-206 43z m526 -742 c13 -16 12 -17 -3 -4 -10 7 -18 15 -18 17 0 8 8 3 21 -13z"/>
<path d="M5779 3300 c-46 -24 -117 -103 -146 -161 -35 -70 -56 -166 -49 -224
6 -54 36 -90 107 -128 l34 -19 -69 -34 c-91 -45 -98 -52 -147 -153 -224 -462
-399 -863 -399 -915 0 -32 32 -25 71 17 46 49 184 252 264 387 31 52 53 84 51
70 -3 -14 -19 -114 -36 -222 -17 -108 -41 -245 -55 -305 -15 -66 -21 -111 -15
-117 5 -5 52 -13 105 -17 53 -3 97 -8 99 -10 2 -2 8 -155 15 -339 11 -300 19
-416 36 -487 5 -20 12 -23 49 -23 43 0 44 0 55 45 17 68 39 269 58 545 l18
250 26 0 c30 0 39 -25 39 -115 0 -139 47 -610 68 -690 8 -27 12 -30 52 -30 40
0 44 3 51 29 15 55 30 261 39 534 5 151 11 276 13 278 2 3 48 8 101 13 53 4
99 11 102 14 4 3 -8 77 -24 164 -28 142 -82 471 -82 497 0 6 27 -36 61 -94 74
-128 195 -310 244 -367 42 -49 75 -57 75 -18 0 55 -127 348 -355 821 -89 185
-103 202 -204 247 l-53 23 60 37 c74 46 86 72 80 171 -4 54 -13 90 -35 137
-84 176 -196 246 -304 189z"/>
<path d="M3434 2441 c-74 -45 -124 -141 -124 -235 0 -61 6 -71 55 -101 l38
-22 -39 -19 c-42 -20 -223 -175 -373 -320 -69 -66 -93 -95 -88 -108 6 -15 10
-15 39 -3 18 8 96 53 172 100 77 48 141 85 143 83 7 -6 -47 -403 -67 -495 -13
-59 -17 -98 -11 -104 5 -5 39 -12 75 -14 l66 -6 0 -141 c0 -137 14 -353 26
-409 4 -22 11 -27 34 -27 19 0 31 6 34 18 11 37 26 154 36 297 18 249 19 255
40 255 16 0 19 -12 25 -97 10 -148 35 -404 44 -438 6 -24 13 -31 38 -33 28 -3
31 0 37 34 11 55 26 305 26 430 l0 111 66 6 c36 2 70 9 74 13 5 5 5 27 0 49
-8 34 -45 248 -65 375 -5 30 1 23 45 -49 136 -224 210 -312 210 -251 0 37
-137 352 -260 595 -42 83 -49 92 -100 119 -48 26 -52 31 -36 40 63 37 76 56
76 111 0 117 -97 255 -180 255 -14 0 -39 -9 -56 -19z"/>
<path d="M4389 2254 c-84 -53 -108 -216 -42 -294 14 -17 24 -32 22 -33 -2 -2
-28 -14 -56 -27 -29 -13 -59 -31 -67 -39 -32 -36 -246 -519 -246 -555 0 -9 7
-16 14 -16 26 0 85 91 174 264 l46 91 7 -35 c4 -19 13 -181 19 -360 11 -327
24 -537 36 -598 6 -28 10 -33 33 -30 22 3 27 10 37 55 11 50 36 270 52 463 l7
85 36 3 36 3 7 -73 c29 -323 47 -469 62 -520 7 -23 50 -24 58 -1 13 33 26 224
36 513 10 305 22 600 24 600 1 0 60 -21 131 -46 210 -74 305 -101 305 -85 0
21 -468 283 -527 296 -18 3 -33 8 -33 10 0 2 11 21 25 41 60 88 38 225 -45
282 -40 26 -112 29 -151 6z"/>
<path d="M1090 481 c-61 -32 -80 -72 -80 -165 0 -93 18 -133 72 -166 33 -20
57 -20 2918 -20 2861 0 2885 0 2918 20 54 33 72 73 72 166 0 93 -19 133 -80
165 -34 18 -131 19 -2910 19 -2779 0 -2876 -1 -2910 -19z"/>
</g>
</svg>
